<svg xmlns="http://www.w3.org/2000/svg" viewBox="325 40 745 405" aria-hidden="true">
  <g fill="#b79c6d">
    <path d="M 1055.5 47 L 1062 47.5 L 1034.5 140 Q 1030.5 140.5 1030 137.5 L 1017.5 123 L 1014 125.5 L 1001.5 140 L 1000 140.5 L 982.5 160 L 981 160.5 L 945.5 199 L 944 199.5 L 936.5 208 L 935 208.5 L 922.5 223 L 917 227.5 L 916.5 229 L 915 229.5 L 914.5 231 L 912 232.5 L 910.5 235 L 909 235.5 L 905.5 240 L 904 240.5 L 857.5 288 L 856 288.5 L 855.5 290 L 854 290.5 L 852.5 293 L 847 297.5 L 846.5 299 Q 809.1 335.1 766.5 366 L 726.5 390 L 696.5 404 L 687.5 406 L 672 367.5 L 672 364.5 Q 723.1 343.6 766.5 315 L 807.5 284 L 849 245.5 L 849.5 244 L 851 243.5 L 853.5 240 L 858 236.5 L 858.5 235 L 868 226.5 L 871.5 222 L 873 221.5 L 894.5 198 L 900 193.5 L 915.5 176 L 917 175.5 L 929.5 161 L 933 158.5 L 934.5 156 L 936 155.5 L 944.5 145 L 950 140.5 L 960.5 128 L 962 127.5 L 982.5 104 L 984 103.5 L 994 91.5 L 985.5 80 L 984 79.5 L 971 62.5 L 977.5 60 L 983.5 60 L 1055.5 47 Z "/>
    <path d="M 332.5 318 L 337 321.5 L 342.5 329 Q 360.8 347.2 384.5 360 Q 404.8 370.7 428.5 378 L 450.5 384 L 472.5 388 L 487.5 389 L 488.5 390 L 499.5 390 L 500.5 391 L 540.5 391 L 541.5 390 L 553.5 390 L 554.5 389 L 562.5 389 L 563.5 388 L 581.5 386 L 588 398.5 L 594 416.5 L 597 421.5 L 599 430.5 L 580.5 434 L 560.5 435 L 559.5 436 L 507.5 436 L 506.5 435 L 496.5 435 L 495.5 434 L 488.5 434 L 487.5 433 L 470.5 431 L 431.5 420 L 409.5 410 L 390.5 399 L 364 377.5 L 343 350.5 L 333 326.5 L 332.5 318 Z "/>
  </g>
</svg>
