<svg xmlns="http://www.w3.org/2000/svg" viewBox="39 37 2158 702" role="img" aria-label="Aktiva Steuerberatung">
  <g id="letters" fill="#3b4868">
    <g id="ak">
      <path d="M 529.5 58 Q 538.1 56.9 540 62.5 L 545 75.5 L 545 78.5 L 548 83.5 L 576 158.5 L 578 160.5 L 589 191.5 L 594 201.5 L 600 219.5 L 633 303.5 L 635 305.5 L 637 313.5 L 642 323.5 L 687 439.5 L 700 468.5 Q 706 480 715.5 488 Q 718.5 491 725.5 490 Q 732.7 488.2 736 482.5 L 740 472.5 L 740 464.5 L 741 463.5 L 741.5 396 L 764.5 383 Q 786.6 369.1 805.5 352 L 807.5 352 L 808 468.5 L 810 478.5 L 816.5 488 L 823.5 490 L 843.5 491 L 847 493.5 Q 848.5 499.5 845.5 501 L 843.5 502 L 750.5 502 L 747.5 504 L 612.5 504 L 609 501.5 L 608 498.5 L 609.5 496 L 618.5 494 L 626.5 494 L 634 490.5 L 635 485.5 L 504.5 155 L 501 161.5 L 468 250.5 L 464 257.5 L 463 263.5 L 429 352.5 L 423.5 363 L 414 359.5 L 414 355.5 L 417 347.5 L 441 287.5 L 445 274.5 L 448 270.5 L 454 250.5 L 457 245.5 L 475 195.5 L 483 177.5 L 483 174.5 L 489 158.5 L 496 143.5 L 497 137.5 L 520 79.5 L 525 62.5 L 527.5 59 L 529.5 58 Z "/>
      <path d="M 701.5 61 L 842.5 61 L 845 63.5 Q 846.5 69.5 843.5 71 L 841.5 72 L 824.5 72 L 816.5 75 L 814 77.5 L 811 81.5 L 808 93.5 L 808 266.5 L 803.5 271 L 769.5 297 L 745.5 313 L 741.5 314 L 741 100.5 L 738 84.5 L 730.5 75 L 721.5 72 Q 707.8 73.8 700 69.5 L 699 64.5 L 701.5 61 Z "/>
      <path d="M 896.5 267 L 900 267.5 L 1038 451.5 L 1057 475.5 L 1066.5 485 Q 1075.3 491.3 1089 492.5 L 1090 498.5 L 1087.5 502 L 945.5 502 L 944 500.5 L 943 495.5 L 945.5 492 L 962.5 491 L 969 487.5 L 970 480.5 L 965 469.5 L 951.5 449 L 949 447.5 L 851 313.5 L 856.5 307 L 858 306.5 L 880.5 283 L 882 282.5 L 896.5 267 Z "/>
      <path d="M 391.5 413 L 401 417.5 L 401 422.5 L 386 462.5 L 385 476.5 Q 386.4 484.6 392.5 488 L 404.5 492 L 410.5 492 L 415 494.5 L 416 500.5 L 412.5 504 L 338.5 504 L 334 500.5 L 334.5 496 L 336 495.5 L 337.5 493 Q 353.1 490.1 361 479.5 L 375 455.5 L 391.5 413 Z "/>
    </g>
    <g id="tiva">
      <path d="M 1087.5 241 Q 1089.3 243.8 1095.5 242 L 1096.5 241 L 1283.5 241 L 1285 242.5 L 1285 264.5 L 1283.5 267 L 1200.5 267 L 1199 268.5 L 1200 500.5 L 1198.5 502 L 1173.5 502 L 1172 500.5 L 1171.5 267 L 1087 266.5 L 1086 264.5 L 1086 243.5 L 1087.5 241 Z "/>
      <path d="M 1363.5 241 L 1386.5 241 L 1389 243.5 L 1389 498.5 L 1386.5 502 L 1362.5 502 L 1361 500.5 L 1361 244.5 L 1363.5 241 Z "/>
      <path d="M 1474.5 241 L 1498.5 241 L 1501 243.5 L 1574 448.5 L 1579 465.5 L 1581.5 469 L 1656 258.5 L 1663.5 242 L 1665.5 241 L 1688.5 241 L 1690 246.5 L 1635 397.5 L 1632 401.5 L 1632 405.5 L 1596.5 501 L 1594.5 502 L 1567.5 502 L 1565 499.5 L 1561 489.5 L 1553 464.5 L 1536 420.5 L 1536 417.5 L 1529 401.5 L 1526 390.5 L 1472 243.5 L 1474.5 241 Z "/>
      <path d="M 1804.5 242 L 1829.5 242 L 1831 243.5 L 1840 265.5 L 1841 271.5 L 1843 273.5 L 1869 339.5 L 1872 350.5 L 1874 352.5 L 1904 431.5 L 1916 459.5 L 1916 462.5 L 1931 497.5 L 1931 500.5 L 1928.5 503 L 1906.5 503 L 1902 500.5 L 1872.5 424 L 1870.5 423 L 1762.5 423 L 1760 424.5 L 1731 499.5 L 1728.5 502 L 1703.5 502 L 1702 500.5 L 1706 486.5 L 1802.5 243 L 1804.5 242 Z M 1817 277 L 1804 306 L 1799 322 L 1792 337 L 1769 398 L 1775 399 L 1776 398 L 1863 398 L 1817 277 Z "/>
    </g>
  </g>
  <g id="gold" fill="#b79c6d">
    <g id="arrow">
      <path d="M 1055.5 47 L 1062 47.5 L 1034.5 140 Q 1030.5 140.5 1030 137.5 L 1017.5 123 L 1014 125.5 L 1001.5 140 L 1000 140.5 L 982.5 160 L 981 160.5 L 945.5 199 L 944 199.5 L 936.5 208 L 935 208.5 L 922.5 223 L 917 227.5 L 916.5 229 L 915 229.5 L 914.5 231 L 912 232.5 L 910.5 235 L 909 235.5 L 905.5 240 L 904 240.5 L 857.5 288 L 856 288.5 L 855.5 290 L 854 290.5 L 852.5 293 L 847 297.5 L 846.5 299 Q 809.1 335.1 766.5 366 L 726.5 390 L 696.5 404 L 687.5 406 L 672 367.5 L 672 364.5 Q 723.1 343.6 766.5 315 L 807.5 284 L 849 245.5 L 849.5 244 L 851 243.5 L 853.5 240 L 858 236.5 L 858.5 235 L 868 226.5 L 871.5 222 L 873 221.5 L 894.5 198 L 900 193.5 L 915.5 176 L 917 175.5 L 929.5 161 L 933 158.5 L 934.5 156 L 936 155.5 L 944.5 145 L 950 140.5 L 960.5 128 L 962 127.5 L 982.5 104 L 984 103.5 L 994 91.5 L 985.5 80 L 984 79.5 L 971 62.5 L 977.5 60 L 983.5 60 L 1055.5 47 Z "/>
      <path d="M 332.5 318 L 337 321.5 L 342.5 329 Q 360.8 347.2 384.5 360 Q 404.8 370.7 428.5 378 L 450.5 384 L 472.5 388 L 487.5 389 L 488.5 390 L 499.5 390 L 500.5 391 L 540.5 391 L 541.5 390 L 553.5 390 L 554.5 389 L 562.5 389 L 563.5 388 L 581.5 386 L 588 398.5 L 594 416.5 L 597 421.5 L 599 430.5 L 580.5 434 L 560.5 435 L 559.5 436 L 507.5 436 L 506.5 435 L 496.5 435 L 495.5 434 L 488.5 434 L 487.5 433 L 470.5 431 L 431.5 420 L 409.5 410 L 390.5 399 L 364 377.5 L 343 350.5 L 333 326.5 L 332.5 318 Z "/>
    </g>
    <g id="rules">
      <path d="M 50.5 368 L 294.5 368 L 296 369.5 L 295.5 387 L 50.5 387 L 49 385.5 L 49 371.5 L 50.5 368 Z "/>
      <path d="M 1940.5 368 L 1942.5 369 L 1943.5 368 L 2183.5 368 L 2187 369.5 L 2186 371.5 L 2187 372.5 L 2187 385.5 L 2185.5 387 L 1940.5 387 L 1940.5 368 Z "/>
    </g>
    <g id="subline">
      <path d="M 96.5 600 L 105.5 600 L 120.5 603 Q 133.2 607.8 141 617.5 Q 145.6 622.9 146 632.5 L 142.5 638 Q 136 639 134 635.5 L 125.5 622 Q 115.5 612 93.5 614 L 78.5 619 L 73 624.5 L 70 629.5 L 69 637.5 Q 70.6 646.4 77.5 650 L 90.5 655 L 114.5 659 L 130.5 664 Q 139.9 667.6 145 675.5 Q 150 683.5 148 698.5 Q 145.8 711.8 137.5 719 L 121.5 727 L 111.5 729 L 88.5 729 Q 70.8 726.2 61 715.5 L 53 702.5 L 51 695.5 L 51 689.5 L 52.5 688 L 62.5 688 L 66 690.5 L 66 693.5 L 70.5 704 L 72 704.5 L 76.5 710 L 84.5 714 L 95.5 716 L 96.5 715 L 108.5 715 L 119.5 712 L 131 703.5 Q 136.1 699.1 134 687.5 L 131.5 682 L 130 681.5 L 127.5 678 L 120.5 675 L 96.5 672 L 77.5 667 Q 67.2 663.3 61 655.5 L 56 645.5 L 55 635.5 L 57 624.5 L 64.5 613 L 78.5 604 L 96.5 600 Z "/>
      <path d="M 2123.5 600 L 2138.5 600 L 2151.5 603 Q 2165.4 608.1 2174 618.5 L 2183 633.5 L 2184 640.5 L 2181.5 645 Q 2172.8 646.8 2171 641.5 Q 2166.4 628.6 2156.5 621 L 2143.5 615 L 2127.5 614 Q 2126 616.5 2120.5 615 L 2107.5 620 L 2096 630.5 L 2095.5 632 L 2094 632.5 L 2090 640.5 L 2087 651.5 L 2086 668.5 L 2087 669.5 L 2087 677.5 L 2092 693.5 L 2104.5 708 L 2119.5 715 Q 2126.2 717.3 2136.5 716 Q 2137.7 713.8 2142.5 715 L 2154.5 710 L 2166 699.5 L 2172 688.5 L 2173 680.5 L 2169.5 677 L 2131.5 677 L 2130 675.5 L 2129 671.5 L 2130 668.5 L 2131.5 666 L 2185.5 666 L 2187 667.5 L 2186 671.5 L 2187 672.5 L 2187 704.5 L 2186 705.5 L 2186 718.5 L 2187 721.5 L 2185.5 725 L 2178.5 726 L 2176 724.5 Q 2173.3 720.7 2175 712.5 L 2173.5 711 Q 2164.7 720.7 2151.5 726 L 2138.5 729 L 2121.5 729 L 2112.5 727 L 2100.5 722 L 2085 708.5 Q 2077.8 699.7 2074 687.5 L 2072 678.5 L 2071 660.5 L 2072 659.5 L 2072 651.5 L 2074 641.5 L 2078 630.5 Q 2083.4 619.4 2092.5 612 L 2103.5 605 L 2123.5 600 Z "/>
      <path d="M 1911.5 602 L 1922.5 602 L 1928 606.5 L 1990.5 702 L 1992 701.5 L 1992 603.5 L 1993.5 602 L 2004.5 602 L 2006 603.5 L 2006 724.5 L 2004.5 726 Q 2001 728.5 1993.5 727 L 1985 720.5 L 1957 675.5 L 1942 654.5 L 1942 652.5 L 1923.5 627 L 1922 633.5 L 1923 634.5 L 1923 719.5 L 1923 721.5 L 1920.5 727 L 1910.5 727 L 1908 724.5 L 1908 604.5 L 1909.5 603 L 1911.5 602 Z "/>
      <path d="M 515.5 603 Q 524 601 526 605.5 L 526 689.5 L 529 700.5 L 536.5 710 Q 542.5 714.5 551.5 716 L 565.5 716 L 573.5 714 L 583 707.5 Q 588.3 701.8 590 692.5 L 591 605.5 L 593.5 603 L 601.5 603 L 603 604.5 L 604 606.5 L 604 692.5 L 601 705.5 Q 597.8 713.8 591.5 719 Q 584.7 724.7 574.5 727 Q 569.8 725.8 568.5 728 L 549.5 728 L 533.5 724 L 520 713.5 L 516 706.5 L 513 695.5 L 513 674.5 L 512 671.5 L 513 670.5 L 513 648.5 L 512 646.5 L 513 645.5 L 513 605.5 L 515.5 603 Z "/>
      <path d="M 829.5 603 L 888.5 603 Q 889.7 605.3 894.5 604 L 906.5 609 L 914 616.5 L 919 627.5 L 920 641.5 L 918 650.5 L 910.5 662 L 894 672.5 L 897 679.5 L 925 722.5 L 925 725.5 Q 922 728.5 914.5 727 L 909 724.5 L 879 676.5 L 875.5 673 L 841.5 673 L 840 674.5 L 840 723.5 L 838.5 726 L 830.5 727 L 827 724.5 L 827.5 604 L 829.5 603 Z M 843 616 L 840 619 L 840 657 L 843 660 L 886 660 L 896 656 Q 903 651 905 640 Q 905 629 900 625 Q 895 618 886 616 L 843 616 Z "/>
      <path d="M 989.5 603 L 1041.5 603 L 1042.5 604 L 1050.5 604 Q 1062.2 606.3 1069 613.5 Q 1077.7 621.8 1075 641.5 Q 1071.6 655.1 1061 661.5 L 1072 670.5 Q 1080.5 679 1079 697.5 Q 1076.8 710.8 1068.5 718 L 1061.5 722 L 1044.5 726 L 1004.5 727 L 1003.5 726 L 989.5 726 L 988 724.5 L 988 604.5 L 989.5 603 Z M 1039 615 L 1038 616 L 1004 616 L 1002 618 L 1002 656 L 1004 657 L 1042 657 L 1053 653 Q 1059 649 1061 641 Q 1063 629 1058 625 Q 1053 617 1042 616 L 1039 615 Z M 1006 669 L 1002 672 L 1002 712 L 1005 714 L 1044 714 L 1056 710 Q 1062 705 1065 697 L 1065 687 L 1061 679 Q 1056 671 1046 669 L 1006 669 Z "/>
      <path d="M 1301.5 603 L 1360.5 603 Q 1361.8 605.3 1366.5 604 L 1378.5 609 L 1385 615.5 Q 1393.4 625.1 1391 645.5 Q 1388.1 659.6 1377.5 666 L 1365 672.5 L 1392 714.5 L 1397 724.5 Q 1395 729 1386.5 727 L 1382.5 726 L 1379 722.5 L 1347.5 673 L 1312 673.5 L 1312 723.5 L 1309.5 726 L 1307.5 727 L 1305.5 727 Q 1300.4 727.6 1299 724.5 L 1298 722.5 L 1298 605.5 L 1301.5 603 Z M 1315 616 L 1312 618 L 1312 659 L 1314 660 L 1361 660 L 1369 656 Q 1376 651 1378 642 L 1378 636 L 1376 629 Q 1371 619 1360 616 L 1315 616 Z "/>
      <path d="M 1638.5 603 L 1682.5 603 L 1686 604.5 L 1687 612.5 L 1684.5 615 L 1656.5 615 L 1655.5 616 L 1645 616.5 L 1645 723.5 L 1641.5 727 Q 1635.4 728.1 1633 725.5 L 1632 723.5 L 1632 618.5 L 1630.5 616 L 1592.5 616 L 1590 614.5 L 1589 607.5 L 1591.5 604 L 1637.5 604 L 1638.5 603 Z "/>
      <path d="M 1748.5 603 Q 1757 601 1759 605.5 L 1760 694.5 Q 1762.1 703.9 1768.5 709 Q 1778 719 1800.5 716 Q 1812.4 713.9 1818 705.5 L 1822 698.5 L 1824 688.5 L 1824 605.5 L 1826.5 603 Q 1835 601 1837 605.5 L 1837 623.5 L 1838 624.5 L 1838 687.5 L 1835 704.5 Q 1831.2 715.2 1822.5 721 L 1817.5 724 L 1803.5 728 L 1779.5 728 L 1765.5 724 L 1753 713.5 L 1749 706.5 L 1746 695.5 L 1746 605.5 L 1748.5 603 Z "/>
      <path d="M 204.5 604 L 297.5 604 L 301 607.5 Q 298.7 608.8 300 613.5 L 298.5 615 L 296.5 616 L 259.5 616 L 258 617.5 L 258 719.5 L 256.5 726 L 247.5 727 L 245 724.5 L 245 617.5 L 243.5 616 L 207.5 616 L 204 614.5 L 203 605.5 L 204.5 604 Z "/>
      <path d="M 363.5 604 L 440.5 604 L 445 607.5 Q 446.3 613.8 442.5 615 L 376.5 616 L 375 617.5 L 375 656.5 L 377.5 659 L 431.5 659 L 438 661.5 Q 439.1 667.6 436.5 670 L 376.5 671 L 375 672.5 L 375 712.5 L 376.5 714 L 440.5 714 L 445 717.5 Q 445.8 723.3 442.5 725 L 424.5 725 L 423.5 726 L 363.5 726 L 362 724.5 L 362 605.5 L 363.5 604 Z "/>
      <path d="M 677.5 604 L 754.5 604 L 759 607.5 Q 759.8 613.3 756.5 615 L 690.5 616 L 689 617.5 L 689 657.5 L 690.5 659 L 747.5 659 L 752 661.5 Q 753.1 667.6 750.5 670 L 736.5 670 L 735.5 671 L 690.5 671 L 689 672.5 L 689 712.5 L 690.5 714 L 755.5 714 L 758 715.5 L 759 721.5 L 756.5 725 L 744.5 725 L 743.5 726 L 677.5 726 L 676 724.5 L 676 605.5 L 677.5 604 Z "/>
      <path d="M 1148.5 604 L 1226.5 604 L 1230 607.5 Q 1231.3 613.8 1227.5 615 L 1161.5 616 L 1160 617.5 L 1160 656.5 L 1162.5 659 L 1218.5 659 L 1223 661.5 Q 1224.5 668.5 1220.5 670 L 1162.5 671 L 1160 672.5 L 1160 711.5 L 1162.5 714 L 1227.5 714 L 1230 715.5 Q 1231.8 723.3 1227.5 725 L 1149.5 726 L 1147 722.5 L 1147 605.5 L 1148.5 604 Z "/>
      <path d="M 1494.5 604 L 1508.5 604 L 1511 605.5 L 1520 631.5 L 1556 720.5 L 1556 725.5 L 1552.5 727 Q 1545.6 727.9 1543 724.5 L 1530 690.5 L 1527.5 688 L 1475.5 688 L 1474 689.5 L 1462 721.5 L 1458.5 726 Q 1455.3 728.3 1448.5 727 Q 1446 726 1447 721.5 L 1492.5 605 L 1494.5 604 Z M 1501 622 L 1480 673 L 1481 676 L 1523 676 L 1520 665 L 1518 663 L 1503 624 L 1501 622 Z "/>
    </g>
  </g>
</svg>
